<mxfile host="app.diagrams.net" modified="2023-04-07T13:49:59.692Z" agent="Mozilla/5.0 (Windows NT 10.0; Win64; x64) AppleWebKit/537.36 (KHTML, like Gecko) Chrome/112.0.0.0 Safari/537.36" etag="1Ugx_2vcy2R_J_8hbEXf" version="21.1.5" type="device">
  <diagram name="Page-1" id="2qaBjyK8kwHGTqR63Isw">
    <mxGraphModel dx="933" dy="380" grid="1" gridSize="10" guides="1" tooltips="1" connect="1" arrows="1" fold="1" page="1" pageScale="1" pageWidth="827" pageHeight="1169" math="0" shadow="0">
      <root>
        <mxCell id="0" />
        <mxCell id="1" parent="0" />
        <mxCell id="wZCE_xuluYeUa-zqTKfS-1" value="&lt;h1&gt;&lt;b&gt;Solar Company&lt;/b&gt;&lt;/h1&gt;" style="ellipse;whiteSpace=wrap;html=1;" parent="1" vertex="1">
          <mxGeometry x="349" y="375" width="130" height="90" as="geometry" />
        </mxCell>
        <mxCell id="wZCE_xuluYeUa-zqTKfS-2" value="&lt;h2&gt;&lt;b&gt;Admin&lt;/b&gt;&lt;/h2&gt;" style="rounded=0;whiteSpace=wrap;html=1;" parent="1" vertex="1">
          <mxGeometry x="670" y="390" width="100" height="50" as="geometry" />
        </mxCell>
        <mxCell id="SzyI2DJQNf2Ob4xqwJB--1" value="Update Profile, login details" style="edgeStyle=orthogonalEdgeStyle;rounded=0;orthogonalLoop=1;jettySize=auto;html=1;exitX=1;exitY=0.75;exitDx=0;exitDy=0;entryX=0.008;entryY=0.589;entryDx=0;entryDy=0;entryPerimeter=0;" edge="1" parent="1" source="wZCE_xuluYeUa-zqTKfS-3" target="wZCE_xuluYeUa-zqTKfS-1">
          <mxGeometry relative="1" as="geometry" />
        </mxCell>
        <mxCell id="SzyI2DJQNf2Ob4xqwJB--3" value="Login Request" style="edgeStyle=orthogonalEdgeStyle;rounded=0;orthogonalLoop=1;jettySize=auto;html=1;exitX=0.033;exitY=0.311;exitDx=0;exitDy=0;entryX=1;entryY=0.25;entryDx=0;entryDy=0;exitPerimeter=0;" edge="1" parent="1" source="wZCE_xuluYeUa-zqTKfS-1" target="wZCE_xuluYeUa-zqTKfS-3">
          <mxGeometry relative="1" as="geometry">
            <Array as="points">
              <mxPoint x="260" y="402" />
            </Array>
          </mxGeometry>
        </mxCell>
        <mxCell id="wZCE_xuluYeUa-zqTKfS-3" value="&lt;h2&gt;&lt;b&gt;User&lt;/b&gt;&lt;/h2&gt;" style="rounded=0;whiteSpace=wrap;html=1;" parent="1" vertex="1">
          <mxGeometry x="50" y="390" width="120" height="50" as="geometry" />
        </mxCell>
        <mxCell id="wZCE_xuluYeUa-zqTKfS-7" value="Login Request" style="endArrow=classic;html=1;rounded=0;entryX=0.002;entryY=0.809;entryDx=0;entryDy=0;entryPerimeter=0;exitX=0.983;exitY=0.607;exitDx=0;exitDy=0;exitPerimeter=0;" parent="1" source="wZCE_xuluYeUa-zqTKfS-1" edge="1">
          <mxGeometry width="50" height="50" relative="1" as="geometry">
            <mxPoint x="480" y="429" as="sourcePoint" />
            <mxPoint x="670.1999999999999" y="429.44999999999993" as="targetPoint" />
            <Array as="points">
              <mxPoint x="510" y="429" />
              <mxPoint x="620" y="429" />
            </Array>
          </mxGeometry>
        </mxCell>
        <mxCell id="wZCE_xuluYeUa-zqTKfS-8" value="Update Profile" style="endArrow=classic;html=1;rounded=0;exitX=0.872;exitY=0.838;exitDx=0;exitDy=0;exitPerimeter=0;" parent="1" source="wZCE_xuluYeUa-zqTKfS-1" target="wZCE_xuluYeUa-zqTKfS-2" edge="1">
          <mxGeometry width="50" height="50" relative="1" as="geometry">
            <mxPoint x="460" y="450" as="sourcePoint" />
            <mxPoint x="440" y="340" as="targetPoint" />
            <Array as="points">
              <mxPoint x="650" y="450" />
            </Array>
          </mxGeometry>
        </mxCell>
        <mxCell id="wZCE_xuluYeUa-zqTKfS-9" value="User Report" style="endArrow=classic;html=1;rounded=0;entryX=0.143;entryY=0.998;entryDx=0;entryDy=0;entryPerimeter=0;exitX=0.718;exitY=0.949;exitDx=0;exitDy=0;exitPerimeter=0;" parent="1" source="wZCE_xuluYeUa-zqTKfS-1" target="wZCE_xuluYeUa-zqTKfS-2" edge="1">
          <mxGeometry width="50" height="50" relative="1" as="geometry">
            <mxPoint x="440" y="460" as="sourcePoint" />
            <mxPoint x="640" y="490" as="targetPoint" />
            <Array as="points">
              <mxPoint x="490" y="470" />
              <mxPoint x="685" y="470" />
            </Array>
          </mxGeometry>
        </mxCell>
        <mxCell id="wZCE_xuluYeUa-zqTKfS-10" value="Product Request" style="endArrow=classic;html=1;rounded=0;exitX=0.654;exitY=0.98;exitDx=0;exitDy=0;exitPerimeter=0;" parent="1" source="wZCE_xuluYeUa-zqTKfS-1" edge="1">
          <mxGeometry width="50" height="50" relative="1" as="geometry">
            <mxPoint x="440" y="478" as="sourcePoint" />
            <mxPoint x="700" y="440" as="targetPoint" />
            <Array as="points">
              <mxPoint x="490" y="488" />
              <mxPoint x="700" y="488" />
            </Array>
          </mxGeometry>
        </mxCell>
        <mxCell id="wZCE_xuluYeUa-zqTKfS-11" value="Change Password" style="endArrow=classic;html=1;rounded=0;exitX=0.626;exitY=0.974;exitDx=0;exitDy=0;exitPerimeter=0;" parent="1" source="wZCE_xuluYeUa-zqTKfS-1" edge="1">
          <mxGeometry x="-0.0016" width="50" height="50" relative="1" as="geometry">
            <mxPoint x="440" y="484" as="sourcePoint" />
            <mxPoint x="708" y="440" as="targetPoint" />
            <Array as="points">
              <mxPoint x="480" y="510" />
              <mxPoint x="708" y="510" />
            </Array>
            <mxPoint as="offset" />
          </mxGeometry>
        </mxCell>
        <mxCell id="wZCE_xuluYeUa-zqTKfS-17" value="Update Profile" style="endArrow=classic;html=1;rounded=0;" parent="1" edge="1">
          <mxGeometry width="50" height="50" relative="1" as="geometry">
            <mxPoint x="670" y="400" as="sourcePoint" />
            <mxPoint x="470" y="400" as="targetPoint" />
            <Array as="points">
              <mxPoint x="648" y="400" />
            </Array>
          </mxGeometry>
        </mxCell>
        <mxCell id="wZCE_xuluYeUa-zqTKfS-18" value="User Report" style="endArrow=classic;html=1;rounded=0;entryX=0.825;entryY=0.115;entryDx=0;entryDy=0;exitX=0;exitY=0;exitDx=0;exitDy=0;entryPerimeter=0;" parent="1" source="wZCE_xuluYeUa-zqTKfS-2" target="wZCE_xuluYeUa-zqTKfS-1" edge="1">
          <mxGeometry width="50" height="50" relative="1" as="geometry">
            <mxPoint x="678" y="375" as="sourcePoint" />
            <mxPoint x="460" y="385" as="targetPoint" />
            <Array as="points">
              <mxPoint x="650" y="385" />
            </Array>
          </mxGeometry>
        </mxCell>
        <mxCell id="wZCE_xuluYeUa-zqTKfS-19" value="Login Details" style="endArrow=classic;html=1;rounded=0;exitX=0;exitY=0.5;exitDx=0;exitDy=0;" parent="1" source="wZCE_xuluYeUa-zqTKfS-2" edge="1">
          <mxGeometry width="50" height="50" relative="1" as="geometry">
            <mxPoint x="679" y="414.86" as="sourcePoint" />
            <mxPoint x="479" y="414.86" as="targetPoint" />
            <Array as="points">
              <mxPoint x="657" y="414.86" />
            </Array>
          </mxGeometry>
        </mxCell>
        <mxCell id="wZCE_xuluYeUa-zqTKfS-20" value="Product Details" style="endArrow=classic;html=1;rounded=0;exitX=0.046;exitY=0.009;exitDx=0;exitDy=0;exitPerimeter=0;entryX=0.776;entryY=0.085;entryDx=0;entryDy=0;entryPerimeter=0;" parent="1" source="wZCE_xuluYeUa-zqTKfS-2" target="wZCE_xuluYeUa-zqTKfS-1" edge="1">
          <mxGeometry width="50" height="50" relative="1" as="geometry">
            <mxPoint x="680" y="375" as="sourcePoint" />
            <mxPoint x="440" y="370" as="targetPoint" />
            <Array as="points">
              <mxPoint x="650" y="370" />
              <mxPoint x="480" y="370" />
            </Array>
          </mxGeometry>
        </mxCell>
        <mxCell id="wZCE_xuluYeUa-zqTKfS-21" value="Change Password" style="endArrow=classic;html=1;rounded=0;exitX=0.106;exitY=0;exitDx=0;exitDy=0;exitPerimeter=0;entryX=0.71;entryY=0.036;entryDx=0;entryDy=0;entryPerimeter=0;" parent="1" target="wZCE_xuluYeUa-zqTKfS-1" edge="1">
          <mxGeometry width="50" height="50" relative="1" as="geometry">
            <mxPoint x="679.5999999999999" y="390" as="sourcePoint" />
            <mxPoint x="445.1100000000001" y="376.89" as="targetPoint" />
            <Array as="points">
              <mxPoint x="649" y="355" />
              <mxPoint x="479" y="355" />
            </Array>
          </mxGeometry>
        </mxCell>
        <mxCell id="SzyI2DJQNf2Ob4xqwJB--6" value="Update Profile" style="endArrow=classic;html=1;rounded=0;entryX=1;entryY=0;entryDx=0;entryDy=0;exitX=0.123;exitY=0.169;exitDx=0;exitDy=0;exitPerimeter=0;" edge="1" parent="1" source="wZCE_xuluYeUa-zqTKfS-1" target="wZCE_xuluYeUa-zqTKfS-3">
          <mxGeometry width="50" height="50" relative="1" as="geometry">
            <mxPoint x="364" y="390" as="sourcePoint" />
            <mxPoint x="150" y="385" as="targetPoint" />
            <Array as="points">
              <mxPoint x="344" y="380" />
              <mxPoint x="200" y="380" />
            </Array>
          </mxGeometry>
        </mxCell>
        <mxCell id="SzyI2DJQNf2Ob4xqwJB--8" value="Change Password" style="endArrow=classic;html=1;rounded=0;entryX=0.044;entryY=0.704;entryDx=0;entryDy=0;exitX=1;exitY=1;exitDx=0;exitDy=0;entryPerimeter=0;" edge="1" parent="1" source="wZCE_xuluYeUa-zqTKfS-3" target="wZCE_xuluYeUa-zqTKfS-1">
          <mxGeometry width="50" height="50" relative="1" as="geometry">
            <mxPoint x="160" y="455" as="sourcePoint" />
            <mxPoint x="354" y="455" as="targetPoint" />
            <Array as="points">
              <mxPoint x="200" y="450" />
              <mxPoint x="334" y="450" />
            </Array>
          </mxGeometry>
        </mxCell>
        <mxCell id="SzyI2DJQNf2Ob4xqwJB--9" value="Product Details" style="endArrow=classic;html=1;rounded=0;exitX=0.853;exitY=1.004;exitDx=0;exitDy=0;exitPerimeter=0;entryX=0;entryY=1;entryDx=0;entryDy=0;" edge="1" parent="1" source="wZCE_xuluYeUa-zqTKfS-3" target="wZCE_xuluYeUa-zqTKfS-1">
          <mxGeometry width="50" height="50" relative="1" as="geometry">
            <mxPoint x="220" y="520" as="sourcePoint" />
            <mxPoint x="270" y="470" as="targetPoint" />
            <Array as="points">
              <mxPoint x="200" y="470" />
              <mxPoint x="220" y="470" />
              <mxPoint x="270" y="470" />
              <mxPoint x="330" y="470" />
            </Array>
          </mxGeometry>
        </mxCell>
        <mxCell id="SzyI2DJQNf2Ob4xqwJB--10" value="Cart Details" style="endArrow=classic;html=1;rounded=0;exitX=0.781;exitY=0.988;exitDx=0;exitDy=0;exitPerimeter=0;" edge="1" parent="1" source="wZCE_xuluYeUa-zqTKfS-3" target="wZCE_xuluYeUa-zqTKfS-1">
          <mxGeometry width="50" height="50" relative="1" as="geometry">
            <mxPoint x="160" y="465" as="sourcePoint" />
            <mxPoint x="374" y="474" as="targetPoint" />
            <Array as="points">
              <mxPoint x="206" y="492" />
              <mxPoint x="226" y="492" />
              <mxPoint x="276" y="492" />
              <mxPoint x="336" y="492" />
            </Array>
          </mxGeometry>
        </mxCell>
        <mxCell id="SzyI2DJQNf2Ob4xqwJB--11" value="Payment Details" style="endArrow=classic;html=1;rounded=0;" edge="1" parent="1" target="wZCE_xuluYeUa-zqTKfS-1">
          <mxGeometry width="50" height="50" relative="1" as="geometry">
            <mxPoint x="140" y="440" as="sourcePoint" />
            <mxPoint x="381" y="477" as="targetPoint" />
            <Array as="points">
              <mxPoint x="212" y="513" />
              <mxPoint x="232" y="513" />
              <mxPoint x="282" y="513" />
              <mxPoint x="342" y="513" />
            </Array>
          </mxGeometry>
        </mxCell>
        <mxCell id="SzyI2DJQNf2Ob4xqwJB--12" value="Order Details" style="endArrow=classic;html=1;rounded=0;entryX=0.316;entryY=0.959;entryDx=0;entryDy=0;entryPerimeter=0;exitX=0.681;exitY=0.999;exitDx=0;exitDy=0;exitPerimeter=0;" edge="1" parent="1" source="wZCE_xuluYeUa-zqTKfS-3" target="wZCE_xuluYeUa-zqTKfS-1">
          <mxGeometry width="50" height="50" relative="1" as="geometry">
            <mxPoint x="140" y="465" as="sourcePoint" />
            <mxPoint x="383" y="485" as="targetPoint" />
            <Array as="points">
              <mxPoint x="212" y="538" />
              <mxPoint x="232" y="538" />
              <mxPoint x="282" y="538" />
              <mxPoint x="342" y="538" />
            </Array>
          </mxGeometry>
        </mxCell>
        <mxCell id="SzyI2DJQNf2Ob4xqwJB--13" value="Change Password" style="endArrow=classic;html=1;rounded=0;entryX=0.917;entryY=0;entryDx=0;entryDy=0;exitX=0;exitY=0;exitDx=0;exitDy=0;entryPerimeter=0;" edge="1" parent="1" source="wZCE_xuluYeUa-zqTKfS-1" target="wZCE_xuluYeUa-zqTKfS-3">
          <mxGeometry width="50" height="50" relative="1" as="geometry">
            <mxPoint x="364" y="375" as="sourcePoint" />
            <mxPoint x="170" y="375" as="targetPoint" />
            <Array as="points">
              <mxPoint x="344" y="365" />
              <mxPoint x="200" y="365" />
            </Array>
          </mxGeometry>
        </mxCell>
        <mxCell id="SzyI2DJQNf2Ob4xqwJB--14" value="Product Details" style="endArrow=classic;html=1;rounded=0;entryX=0.77;entryY=0.003;entryDx=0;entryDy=0;exitX=0.185;exitY=0.106;exitDx=0;exitDy=0;entryPerimeter=0;exitPerimeter=0;" edge="1" parent="1" source="wZCE_xuluYeUa-zqTKfS-1" target="wZCE_xuluYeUa-zqTKfS-3">
          <mxGeometry width="50" height="50" relative="1" as="geometry">
            <mxPoint x="368" y="373" as="sourcePoint" />
            <mxPoint x="160" y="375" as="targetPoint" />
            <Array as="points">
              <mxPoint x="344" y="350" />
              <mxPoint x="200" y="350" />
            </Array>
          </mxGeometry>
        </mxCell>
        <mxCell id="SzyI2DJQNf2Ob4xqwJB--15" value="Cart Details" style="endArrow=classic;html=1;rounded=0;entryX=0.667;entryY=0;entryDx=0;entryDy=0;entryPerimeter=0;" edge="1" parent="1" source="wZCE_xuluYeUa-zqTKfS-1" target="wZCE_xuluYeUa-zqTKfS-3">
          <mxGeometry width="50" height="50" relative="1" as="geometry">
            <mxPoint x="368" y="353" as="sourcePoint" />
            <mxPoint x="160" y="355" as="targetPoint" />
            <Array as="points">
              <mxPoint x="344" y="330" />
              <mxPoint x="200" y="330" />
            </Array>
          </mxGeometry>
        </mxCell>
        <mxCell id="SzyI2DJQNf2Ob4xqwJB--16" value="Payment Details" style="endArrow=classic;html=1;rounded=0;entryX=0.583;entryY=0;entryDx=0;entryDy=0;entryPerimeter=0;exitX=0.297;exitY=0.038;exitDx=0;exitDy=0;exitPerimeter=0;" edge="1" parent="1" source="wZCE_xuluYeUa-zqTKfS-1" target="wZCE_xuluYeUa-zqTKfS-3">
          <mxGeometry width="50" height="50" relative="1" as="geometry">
            <mxPoint x="383" y="360" as="sourcePoint" />
            <mxPoint x="130" y="370" as="targetPoint" />
            <Array as="points">
              <mxPoint x="344" y="310" />
              <mxPoint x="200" y="310" />
            </Array>
          </mxGeometry>
        </mxCell>
        <mxCell id="SzyI2DJQNf2Ob4xqwJB--17" value="Order Details" style="endArrow=classic;html=1;rounded=0;entryX=0.5;entryY=0;entryDx=0;entryDy=0;fontStyle=0;exitX=0.344;exitY=0.025;exitDx=0;exitDy=0;exitPerimeter=0;" edge="1" parent="1" source="wZCE_xuluYeUa-zqTKfS-1" target="wZCE_xuluYeUa-zqTKfS-3">
          <mxGeometry width="50" height="50" relative="1" as="geometry">
            <mxPoint x="383" y="340" as="sourcePoint" />
            <mxPoint x="130" y="350" as="targetPoint" />
            <Array as="points">
              <mxPoint x="344" y="290" />
              <mxPoint x="200" y="290" />
            </Array>
          </mxGeometry>
        </mxCell>
        <mxCell id="SzyI2DJQNf2Ob4xqwJB--18" value="Track Order" style="endArrow=classic;html=1;rounded=0;entryX=0.42;entryY=0.004;entryDx=0;entryDy=0;entryPerimeter=0;exitX=0.392;exitY=0.011;exitDx=0;exitDy=0;exitPerimeter=0;" edge="1" parent="1" source="wZCE_xuluYeUa-zqTKfS-1" target="wZCE_xuluYeUa-zqTKfS-3">
          <mxGeometry width="50" height="50" relative="1" as="geometry">
            <mxPoint x="383" y="320" as="sourcePoint" />
            <mxPoint x="130" y="330" as="targetPoint" />
            <Array as="points">
              <mxPoint x="344" y="270" />
              <mxPoint x="200" y="270" />
            </Array>
          </mxGeometry>
        </mxCell>
        <mxCell id="SzyI2DJQNf2Ob4xqwJB--19" value="Project Details" style="endArrow=classic;html=1;rounded=0;exitX=0.195;exitY=-0.05;exitDx=0;exitDy=0;exitPerimeter=0;entryX=0.581;entryY=-0.009;entryDx=0;entryDy=0;entryPerimeter=0;" edge="1" parent="1" source="wZCE_xuluYeUa-zqTKfS-2" target="wZCE_xuluYeUa-zqTKfS-1">
          <mxGeometry width="50" height="50" relative="1" as="geometry">
            <mxPoint x="678.5999999999999" y="375" as="sourcePoint" />
            <mxPoint x="440" y="363" as="targetPoint" />
            <Array as="points">
              <mxPoint x="648" y="340" />
              <mxPoint x="478" y="340" />
            </Array>
          </mxGeometry>
        </mxCell>
        <mxCell id="SzyI2DJQNf2Ob4xqwJB--20" value="Project Request" style="endArrow=classic;html=1;rounded=0;exitX=0.562;exitY=1;exitDx=0;exitDy=0;exitPerimeter=0;entryX=0.5;entryY=1;entryDx=0;entryDy=0;" edge="1" parent="1" source="wZCE_xuluYeUa-zqTKfS-1" target="wZCE_xuluYeUa-zqTKfS-2">
          <mxGeometry x="-0.0016" width="50" height="50" relative="1" as="geometry">
            <mxPoint x="430" y="483" as="sourcePoint" />
            <mxPoint x="708" y="460" as="targetPoint" />
            <Array as="points">
              <mxPoint x="480" y="530" />
              <mxPoint x="720" y="530" />
            </Array>
            <mxPoint as="offset" />
          </mxGeometry>
        </mxCell>
        <mxCell id="SzyI2DJQNf2Ob4xqwJB--21" value="Newsletter Details&amp;nbsp;" style="endArrow=classic;html=1;rounded=0;exitX=0.37;exitY=-0.033;exitDx=0;exitDy=0;exitPerimeter=0;entryX=0.5;entryY=0;entryDx=0;entryDy=0;" edge="1" parent="1" source="wZCE_xuluYeUa-zqTKfS-2" target="wZCE_xuluYeUa-zqTKfS-1">
          <mxGeometry width="50" height="50" relative="1" as="geometry">
            <mxPoint x="685" y="368" as="sourcePoint" />
            <mxPoint x="420" y="354" as="targetPoint" />
            <Array as="points">
              <mxPoint x="643" y="320" />
              <mxPoint x="473" y="320" />
            </Array>
          </mxGeometry>
        </mxCell>
        <mxCell id="SzyI2DJQNf2Ob4xqwJB--22" value="Newsletter Request" style="endArrow=classic;html=1;rounded=0;exitX=0.5;exitY=1;exitDx=0;exitDy=0;entryX=0.603;entryY=1;entryDx=0;entryDy=0;entryPerimeter=0;" edge="1" parent="1" source="wZCE_xuluYeUa-zqTKfS-1" target="wZCE_xuluYeUa-zqTKfS-2">
          <mxGeometry x="-0.0265" width="50" height="50" relative="1" as="geometry">
            <mxPoint x="430" y="485" as="sourcePoint" />
            <mxPoint x="728" y="460" as="targetPoint" />
            <Array as="points">
              <mxPoint x="480" y="550" />
              <mxPoint x="730" y="550" />
            </Array>
            <mxPoint as="offset" />
          </mxGeometry>
        </mxCell>
      </root>
    </mxGraphModel>
  </diagram>
</mxfile>
